<?xml version="1.0" encoding="utf-8"?>
<!-- Generator: Adobe Illustrator 27.9.0, SVG Export Plug-In . SVG Version: 6.00 Build 0)  -->
<svg version="1.1" id="Layer_1" xmlns="http://www.w3.org/2000/svg" xmlns:xlink="http://www.w3.org/1999/xlink" x="0px" y="0px"
	 viewBox="0 0 545 617.7" enable-background="new 0 0 545 617.7" xml:space="preserve">
<g id="efXr9q.tif">
	<g>
		<path fill="#FFFFFF" d="M449.9,174.4c-29.6-15.2-57.8-29.5-90-46c32.8-14.7,62.3-28.3,92.1-41.1c3.1-1.3,8.3,0.8,11.9,2.6
			c23.8,11.9,47.7,23.7,70.8,36.9c4.8,2.7,9.2,10.7,9.4,16.4c0.9,22.4-0.8,44.9,0.1,67.3c0.5,13.7-5,20.3-17.1,25.9
			c-138.3,64.5-276.3,129.6-414.3,194.6c-5.2,2.4-10,5.4-16.3,8.8c29.5,15,57.6,29.2,90,45.7c-32.7,14.4-62.2,27.7-92.1,40.2
			c-3.6,1.5-9.5-1-13.6-3c-22.6-11-45.5-21.7-67.2-34.2c-5.8-3.3-8.1-12.8-11.8-19.6c-0.6-1.1-0.1-2.9-0.1-4.3
			c0.8-25.9-6.8-57,4.9-76.3c11-18.1,42.2-24.2,64.9-34.9C190,297.4,308.6,241.7,427.1,185.8C434.2,182.5,441.2,178.8,449.9,174.4z"
			/>
		<path fill="#FFFFFF" d="M238.3,422c32-14.4,59.9-27.8,88.5-39.2c6-2.4,15.5,0.5,22,3.7c32.8,16.1,65.2,33.2,100.4,51.3
			c0-41.7,0.5-80.5-0.3-119.2c-0.3-12.6,3.3-19.4,15.5-24.1c26-10.1,51.3-21.9,80.2-34.5c0,28,0,52.9,0,77.9
			c0,44.1-0.5,88.3,0.3,132.4c0.2,12.9-3.6,19.9-16,23.7c-11.6,3.6-23.8,7.3-33.7,14c-32,21.7-60.5,16.2-92.8-2.2
			C350.5,476.1,296,451,238.3,422z"/>
		<path fill="#FFFFFF" d="M97,176.4c0,39.8-1.1,76.6,0.5,113.2c0.8,17.5-5.3,25.8-21.1,31.7c-24.6,9.2-48.4,20.8-74.8,32.4
			c0-74.2-0.2-145,0.5-215.8c0.1-5.3,5.6-13.1,10.6-15.4c24.6-11.7,49.9-22.3,75.2-32.6c4.6-1.9,11.4-2.2,15.6-0.2
			c67.1,33.3,133.9,67,204.6,102.6c-32.8,14.4-61.8,27.7-91.5,39.6c-4.6,1.9-12.3-1.8-17.8-4.5C165.5,211,132.5,194.2,97,176.4z"/>
		<path fill="#FFFFFF" d="M159.9,57.6C197.4,37.7,232,19,266.9,1.1c3.6-1.8,9.9-1.2,13.7,0.8c34.5,17.7,68.6,36,105.9,55.7
			c-26.7,17.9-50.7,34.9-75.9,50c-4.4,2.6-14.4-1.6-20.5-5.1c-11.5-6.6-22-8.9-33.2,0.1c-11.9,9.5-22.1,7.2-34-2
			C203.6,85.7,182.7,73,159.9,57.6z"/>
		<path fill="#FFFFFF" d="M386.3,561.3c-37,19.5-70.6,37.4-104.5,54.5c-4.7,2.4-12.5,2.5-17.2,0.1c-34-17.1-67.5-35.1-105-54.8
			c27.2-18.3,51.7-35.3,77-50.9c3.5-2.2,12.2,1.2,16.8,4.4c13.4,9.1,25.9,9.9,38.8-0.1c9.1-7.1,17.1-6.5,26.7,0.6
			C339.8,530.4,361.6,544.4,386.3,561.3z"/>
	</g>
</g>
</svg>
