<?xml version="1.0" encoding="utf-8"?>
<!-- Generator: Adobe Illustrator 27.9.0, SVG Export Plug-In . SVG Version: 6.00 Build 0)  -->
<svg version="1.1" id="Layer_1" xmlns="http://www.w3.org/2000/svg" xmlns:xlink="http://www.w3.org/1999/xlink" x="0px" y="0px"
	 viewBox="0 0 42 42" enable-background="new 0 0 42 42" xml:space="preserve">
<g id="XMLID_00000168824196801138155310000001267447264254332329_">
	<g>
		<polygon fill="#FFFFFF" points="16,11 30.1,31 27,31 12.9,11 		"/>
		<path fill="#FFFFFF" d="M40,7v28c0,2.8-2.2,5-5,5H7c-2.8,0-5-2.2-5-5V7c0-2.8,2.2-5,5-5h28C37.8,2,40,4.2,40,7z M33.9,33
			L23.8,18.6L32,9h-2.5l-6.8,8L17,9H9.1l9.2,13.1L9,33h2.5l7.9-9.3L26,33H33.9z"/>
		<path d="M27,31h3.1L16,11h-3.1L27,31z M23.8,18.6L33.9,33H26l-6.6-9.3L11.5,33H9l9.3-10.9L9.1,9H17l5.7,8l6.8-8H32L23.8,18.6z"/>
		<path d="M40,35V7c0-2.8-2.2-5-5-5H7C4.2,2,2,4.2,2,7v28c0,2.8,2.2,5,5,5h28C37.8,40,40,37.8,40,35z M42,7v28c0,3.9-3.1,7-7,7H7
			c-3.9,0-7-3.1-7-7V7c0-3.9,3.1-7,7-7h28C38.9,0,42,3.1,42,7z"/>
	</g>
	<g>
	</g>
</g>
</svg>
